<?xml version="1.0" standalone="no"?>
<!DOCTYPE svg PUBLIC "-//W3C//DTD SVG 20010904//EN"
 "http://www.w3.org/TR/2001/REC-SVG-20010904/DTD/svg10.dtd">
<svg version="1.0" xmlns="http://www.w3.org/2000/svg"
 width="512.000000pt" height="512.000000pt" viewBox="0 0 512.000000 512.000000"
 preserveAspectRatio="xMidYMid meet">

<g transform="translate(0.000000,512.000000) scale(0.100000,-0.100000)"
fill="#ffffff" stroke="none">
<path d="M650 5105 c-337 -68 -587 -329 -639 -665 -9 -56 -11 -473 -9 -1605 3
-1669 -1 -1540 58 -1697 66 -177 261 -372 438 -438 156 -59 34 -55 1742 -55
1708 0 1586 -4 1742 55 178 66 372 260 438 438 59 156 55 34 55 1742 0 1430
-1 1570 -17 1625 -29 106 -58 172 -107 247 -114 174 -261 280 -481 346 -50 15
-189 17 -1605 19 -1251 1 -1563 -1 -1615 -12z m3145 -320 c172 -45 305 -179
350 -352 23 -86 23 -3020 0 -3106 -45 -173 -178 -307 -350 -352 -52 -13 -244
-15 -1555 -15 -1311 0 -1503 2 -1555 15 -172 45 -305 179 -350 352 -23 86 -23
3020 0 3106 45 171 177 306 346 351 84 23 3027 23 3114 1z"/>
<path d="M4895 3826 c-37 -17 -70 -52 -84 -89 -8 -20 -11 -485 -11 -1511 0
-1281 -2 -1490 -15 -1539 -41 -159 -145 -274 -308 -340 l-52 -22 -1522 -5
c-1517 -5 -1522 -5 -1549 -26 -53 -39 -69 -71 -69 -134 0 -63 16 -95 69 -134
27 -21 28 -21 1559 -21 1672 0 1553 -4 1709 55 178 66 372 260 438 438 59 156
55 37 55 1709 0 1531 0 1532 -21 1559 -11 15 -32 37 -46 47 -34 25 -113 32
-153 13z"/>
</g>
</svg>
